<svg xmlns="http://www.w3.org/2000/svg" version="1.1" xmlns:xlink="http://www.w3.org/1999/xlink" xmlns:svgjs="http://svgjs.dev/svgjs" width="100%" height="100%" viewBox="0 0 1000 600"><rect width="1000" height="600" x="0" y="0" fill="white"/><g><rect width="333.3333333333333" height="333.3333333333333" rx="13.333333333333334" ry="13.333333333333334" y="105.41667350297945" fill="#db9aa3" transform="matrix(1.5025041125366903,0,0,1.5025041125366903,0,-108.80635673617819)" x="83.19446563720702"/><path d="M206.44007976375894 289.7149238825706L206.44007976375894 302.6096607246758L127.4927113427063 264.18860809309683L206.44007976375894 225.50439756678105L206.44007976375894 238.13597651414952L166.96639555323264 257.2149238825706Q163.2821850269168 258.92545019836007 159.20323765849577 260.63597651414955Q155.12429029007473 262.3465028299389 151.04534292165368 264.0570291457284L151.04534292165368 264.0570291457284Q155.12429029007473 265.63597651414955 159.20323765849577 267.2675554615179Q163.2821850269168 268.92545019836007 166.96639555323264 270.7675554615179L166.96639555323264 270.7675554615179L206.44007976375894 289.7149238825706ZM220.65060607954842 347.0833449352021L207.22955344796947 347.0833449352021L279.0716587111274 197.08334493520212L292.49271134270634 197.08334493520212L220.65060607954842 347.0833449352021ZM372.22955344796947 263.92545019836007L293.28218502691686 302.6096607246758L293.28218502691686 289.97808177730735L332.75586923744316 270.8991344088863Q336.44007976375894 269.0570291457284 340.51902713218004 267.3991344088863Q344.5979745006011 265.7675554615179 348.6769218690221 264.0570291457284L348.6769218690221 264.0570291457284Q344.5979745006011 262.47808177730735 340.51902713218004 260.7675554615179Q336.44007976375894 259.0570291457284 332.75586923744316 257.3465028299389L332.75586923744316 257.3465028299389L293.28218502691686 238.39913440888634L293.28218502691686 225.50439756678105L372.22955344796947 263.92545019836007Z " fill="white" transform="matrix(1.5025041125366903,0,0,1.5025041125366903,0,-108.80635673617819)"/><path d="M582.3611346854109 347.0833449352021L560.9548846854109 347.0833449352021L518.6111346854109 295.52084493520215L553.4548846854109 253.33334493520212L572.9861346854109 253.33334493520212L538.7673846854109 294.27084493520215L582.3611346854109 347.0833449352021ZM516.7361346854109 347.0833449352021L499.86113468541095 347.0833449352021L499.86113468541095 197.08334493520212L516.7361346854109 197.08334493520212L516.7361346854109 347.0833449352021Z " fill="#db9aa3" transform="matrix(1.5025041125366903,0,0,1.5025041125366903,0,-108.80635673617819)"/></g></svg>