<svg xmlns="http://www.w3.org/2000/svg" version="1.1" xmlns:xlink="http://www.w3.org/1999/xlink" xmlns:svgjs="http://svgjs.dev/svgjs" width="100%" height="100%" viewBox="0 0 1000 600"><rect width="1000" height="600" x="0" y="0" fill="white"/><g><circle r="166.66666666666666" cx="378.51247660319007" cy="400.7347051414872" fill="#ba5765" transform="matrix(0.5900517505348785,0,0,0.5900517505348785,0,63.545773726553506)"/><path d="M345.2720479395818 445.1614772221273L286.991793634532 414.004364947934L286.991793634532 397.5765519175033L345.2720479395818 366.44597892122664L345.2720479395818 382.8737919516574L300.739139595377 405.80372807167697L345.2720479395818 428.73366419169656L345.2720479395818 445.1614772221273ZM347.18287594958343 475.73472538215344L396.4663150408756 325.7347265970252L413.8760813542238 325.7347265970252L364.38032803959817 475.73472538215344L347.18287594958343 475.73472538215344ZM411.75293912088864 445.1614772221273L411.75293912088864 428.73366419169656L456.2858474650934 405.80372807167697L411.75293912088864 382.8737919516574L411.75293912088864 366.44597892122664L470.03319342593846 397.5765519175033L470.03319342593846 414.004364947934L411.75293912088864 445.1614772221273Z " fill="white" transform="matrix(0.5900517505348785,0,0,0.5900517505348785,0,63.545773726553506)"/><path d="M628.5124918187247 472.98068613578124L628.5124918187247 335.5511236803921L646.3728813838595 335.5511236803921L646.3728813838595 472.98068613578124L628.5124918187247 472.98068613578124ZM691.5283090477731 472.98068613578124L647.3545211156837 400.1484715884907L691.5283090477731 335.5511236803921L711.3519780765564 335.5511236803921L666.7964413598687 400.1484715884907L711.3519780765564 472.98068613578124L691.5283090477731 472.98068613578124ZM773.0044067891823 376.7799924170088L790.0740310147922 376.7799924170088L790.0740310147922 472.98068613578124L775.5675772000567 472.98068613578124L774.3677953056049 461.20100935389075Q770.4412363783081 467.6907386920619 763.7879004181661 471.31735214574576Q757.1072966876959 474.9439655994297 749.063304440803 474.9439655994297L749.063304440803 474.9439655994297Q733.9296919085132 474.9439655994297 726.5673939198316 464.82762280757464Q719.2050959311501 454.7112800157196 719.2050959311501 435.8692507187605L719.2050959311501 435.8692507187605L719.2050959311501 376.7799924170088L736.3019879270884 376.7799924170088L736.3019879270884 433.7150968628129Q736.3019879270884 446.6672877688268 740.1194757730714 453.04794602568415Q743.9369636190544 459.4286042825415 752.9898633680999 459.4286042825415L752.9898633680999 459.4286042825415Q759.2614505436435 459.4286042825415 764.3605235950636 455.9110619101714Q769.4595966464839 452.3662517674729 773.0044067891823 446.09466459192936L773.0044067891823 446.09466459192936L773.0044067891823 376.7799924170088ZM855.4621442624159 374.8167129533604Q867.0509466520073 374.8167129533604 875.5857587648121 381.6881910761299Q884.1205708776171 388.5596691988993 888.6470207521397 400.0394005071769Q893.146202856334 411.51913181545444 893.146202856334 424.88033927639503L893.146202856334 424.88033927639503Q893.146202856334 438.8141699142331 888.4561463598407 450.29390122251067Q883.7388220930188 461.80090030111666 875.2040099802139 468.37243295027315Q866.6419300970804 474.9439655994297 855.4621442624159 474.9439655994297L855.4621442624159 474.9439655994297Q847.6090264078222 474.9439655994297 840.8466193663666 471.99904640395704Q834.0569445545825 469.05412720848443 829.5577624503882 463.54603760213746L829.5577624503882 463.54603760213746L828.766997110863 472.98068613578124L813.2516357939749 472.98068613578124L813.2516357939749 325.73472636215L830.3212600195848 325.73472636215L830.3212600195848 385.996498788025Q840.5466738927536 374.8167129533604 855.4621442624159 374.8167129533604L855.4621442624159 374.8167129533604ZM852.5172250669432 459.83762083746825Q862.9335133324112 459.83762083746825 869.3141715892687 449.7212780456132Q875.6948298461259 439.6049352537582 875.6948298461259 424.88033927639503L875.6948298461259 424.88033927639503Q875.6948298461259 409.77399451443364 869.3959749002539 399.95759719619156Q863.1243877247103 390.1411998779495 852.5172250669432 390.1411998779495L852.5172250669432 390.1411998779495Q841.9100624091761 390.1411998779495 835.3385297600196 399.0577607753527Q828.766997110863 408.00158944308436 828.766997110863 424.88033927639503L828.766997110863 424.88033927639503Q828.766997110863 442.3589800569316 835.3385297600196 451.08466656203575Q841.9100624091761 459.83762083746825 852.5172250669432 459.83762083746825L852.5172250669432 459.83762083746825ZM911.2247345840965 472.98068613578124L911.2247345840965 376.7799924170088L925.1585652219346 376.7799924170088L927.3127190778822 392.8679769107945Q933.8024484160534 383.4605961474792 939.5832157256848 379.12502066525553Q945.3912508056446 374.8167129533604 951.8537123734874 374.8167129533604L951.8537123734874 374.8167129533604Q954.4168827843617 374.8167129533604 956.3801622480102 375.4166039005863L956.3801622480102 375.4166039005863L954.6077571766609 394.8312563744429Q952.0445867657866 394.25863319754546 948.7179187857157 394.25863319754546L948.7179187857157 394.25863319754546Q942.2281894475445 394.25863319754546 936.5564932192268 397.50349786663105Q930.8575292205808 400.72109476538816 928.2943588097064 405.05667024761175L928.2943588097064 405.05667024761175L928.2943588097064 472.98068613578124L911.2247345840965 472.98068613578124ZM986.8109939345607 474.9439655994297Q975.8220824921951 474.9439655994297 968.7324622067981 467.090847744836Q961.6701096917295 459.23772989024235 961.6701096917295 447.07630432375356L961.6701096917295 447.07630432375356Q961.6701096917295 428.997772595991 976.8037222240193 421.062851430412Q991.9100669859808 413.10066249450455 1010.5612218906408 412.71891370990625L1010.5612218906408 412.71891370990625Q1010.5612218906408 400.1484715884907 1006.8255373556431 395.24027292936967Q1003.0898528206453 390.3320742702486 994.2550952342276 390.3320742702486L994.2550952342276 390.3320742702486Q982.8844350072637 390.3320742702486 971.1047582253732 399.1668318566665L971.1047582253732 399.1668318566665L968.9506043694257 384.8239846639017Q981.3029043282137 374.8167129533604 997.6090309846269 374.8167129533604L997.6090309846269 374.8167129533604Q1013.1243923015151 374.8167129533604 1020.5684936011821 383.7605416210921Q1028.0398626711776 392.6771025184953 1028.0398626711776 412.50077154727865L1028.0398626711776 412.50077154727865L1028.0398626711776 440.5865749855824Q1028.0398626711776 451.766360820247 1029.594125579899 456.40188177608354Q1031.1756562589494 461.0101349615916 1036.4656037026684 461.0101349615916L1036.4656037026684 461.0101349615916L1038.6470253289444 461.0101349615916L1036.4656037026684 474.9439655994297L1032.7571869379994 474.9439655994297Q1023.7042871889537 474.9439655994297 1019.3959794770586 471.61729761935874Q1015.0876717651636 468.26336186895935 1012.33362696199 460.81926056929245L1012.33362696199 460.81926056929245Q1007.8071770874674 467.28172213713515 1001.1265733569969 471.12647775344664Q994.4732373968551 474.9439655994297 986.8109939345607 474.9439655994297L986.8109939345607 474.9439655994297ZM992.1009413782799 461.0101349615916Q996.8182656451019 461.0101349615916 1001.917338696522 457.38352150790774Q1007.0164117479422 453.7296402838954 1010.5612218906408 447.83980189295016L1010.5612218906408 447.83980189295016L1010.5612218906408 424.88033927639503Q995.4548771286793 425.6711046159201 987.6017592740857 430.6611065860265Q979.7486414194921 435.6783763264613 979.7486414194921 446.09466459192936L979.7486414194921 446.09466459192936Q979.7486414194921 461.0101349615916 992.1009413782799 461.0101349615916L992.1009413782799 461.0101349615916ZM1107.9344297335365 475.7347309389547Q1088.9015260442784 475.7347309389547 1074.7495532438124 466.98177666352217Q1060.6248482136757 458.25609015841815 1052.8808014403958 442.0590345833187Q1045.109486896787 425.86197900821924 1045.109486896787 404.26590490808667L1045.109486896787 404.26590490808667Q1045.109486896787 382.8607052002533 1053.0716758326948 366.6636496251538Q1061.0065969982738 350.46659405005437 1075.1585697987393 341.6318364636365Q1089.2832748288765 332.79707887721867 1107.1436643940115 332.79707887721867L1107.1436643940115 332.79707887721867Q1122.8499001031987 332.79707887721867 1137.0018729036647 338.6869172681639L1137.0018729036647 338.6869172681639L1135.038593440016 355.37479270917544Q1122.4681513186006 349.10320553363186 1110.6884745367101 349.10320553363186L1110.6884745367101 349.10320553363186Q1096.154752951646 349.10320553363186 1085.847535767492 356.35643244099964Q1075.540318583338 363.63692711869584 1070.2503711396184 376.1801014697829Q1064.9331559255706 388.7505435911985 1064.9331559255706 404.26590490808667L1064.9331559255706 404.26590490808667Q1064.9331559255706 419.78126622497484 1070.2503711396184 432.3517083463904Q1075.540318583338 444.8948826974775 1085.847535767492 452.17537737517375Q1096.154752951646 459.4286042825415 1110.8793489290092 459.4286042825415L1110.8793489290092 459.4286042825415Q1123.6406654427237 459.4286042825415 1135.038593440016 453.53876589159626L1135.038593440016 453.53876589159626L1137.0018729036647 470.22664133260776Q1124.4314307822488 475.7347309389547 1107.9344297335365 475.7347309389547L1107.9344297335365 475.7347309389547ZM1186.8746248344 474.9439655994297Q1173.8951661580577 474.9439655994297 1164.4877853947423 468.37243295027315Q1155.0531368610987 461.80090030111666 1150.0631348909924 450.40297230382447Q1145.0458651505573 439.0050443065323 1145.0458651505573 424.88033927639503L1145.0458651505573 424.88033927639503Q1145.0458651505573 410.75563424625784 1150.0631348909924 399.35770624896566Q1155.0531368610987 387.9597782516734 1164.4877853947423 381.3882456025169Q1173.8951661580577 374.8167129533604 1186.8746248344 374.8167129533604L1186.8746248344 374.8167129533604Q1199.6359413481146 374.8167129533604 1209.04332211143 381.3882456025169Q1218.4779706450736 387.9597782516734 1223.386169304195 399.35770624896566Q1228.2943679633158 410.75563424625784 1228.2943679633158 424.88033927639503L1228.2943679633158 424.88033927639503Q1228.2943679633158 439.0050443065323 1223.386169304195 450.40297230382447Q1218.4779706450736 461.80090030111666 1209.04332211143 468.37243295027315Q1199.6359413481146 474.9439655994297 1186.8746248344 474.9439655994297L1186.8746248344 474.9439655994297ZM1186.8746248344 459.83762083746825Q1198.2452850613636 459.83762083746825 1204.544140007236 450.5938466961236Q1210.8157271827795 441.3773403251074 1210.8157271827795 424.88033927639503L1210.8157271827795 424.88033927639503Q1210.8157271827795 408.38333822768266 1204.544140007236 399.24863516765186Q1198.2452850613636 390.1411998779495 1186.8746248344 390.1411998779495L1186.8746248344 390.1411998779495Q1175.0949480525096 390.1411998779495 1168.7960931066373 399.24863516765186Q1162.5245059310937 408.38333822768266 1162.5245059310937 424.88033927639503L1162.5245059310937 424.88033927639503Q1162.5245059310937 441.5682147174066 1168.7960931066373 450.7029177774374Q1175.0949480525096 459.83762083746825 1186.8746248344 459.83762083746825L1186.8746248344 459.83762083746825ZM1301.7264734578325 325.73472636215L1318.7960976834424 325.73472636215L1318.7960976834424 472.98068613578124L1303.6897529214807 472.98068613578124L1302.2990966347297 464.14592854936336Q1297.7999145305357 469.43587599308273 1291.5010595846638 472.18992079625616Q1285.2294724091198 474.9439655994297 1277.7581033391248 474.9439655994297L1277.7581033391248 474.9439655994297Q1266.5783175044603 474.9439655994297 1257.7435599180421 468.37243295027315Q1248.9088023316244 461.80090030111666 1243.809729280204 450.40297230382447Q1238.6833884584553 439.0050443065323 1238.6833884584553 425.0712136686942L1238.6833884584553 425.0712136686942Q1238.6833884584553 411.51913181545444 1243.5097838065913 400.0394005071769Q1248.3089113843985 388.5596691988993 1257.2527400521303 381.6881910761299Q1266.1693009495334 374.8167129533604 1277.7581033391248 374.8167129533604L1277.7581033391248 374.8167129533604Q1292.1009505318893 374.8167129533604 1301.7264734578325 384.8239846639017L1301.7264734578325 384.8239846639017L1301.7264734578325 325.73472636215ZM1279.5305084104739 459.83762083746825Q1290.3285454605402 459.83762083746825 1296.8182747987112 451.2755409543349Q1303.2807363665543 442.7407288415299 1303.2807363665543 425.0712136686942L1303.2807363665543 425.0712136686942Q1303.2807363665543 408.00158944308436 1296.8182747987112 399.0577607753527Q1290.3285454605402 390.1411998779495 1279.5305084104739 390.1411998779495L1279.5305084104739 390.1411998779495Q1272.8499046800039 390.1411998779495 1267.5599572362844 394.6403819821437Q1262.2427420222366 399.1668318566665 1259.2160195157785 407.1017530222455Q1256.162029238992 415.063941958153 1256.162029238992 425.0712136686942L1256.162029238992 425.0712136686942Q1256.162029238992 434.505862202338 1259.2160195157785 442.440783367917Q1262.2427420222366 450.40297230382447 1267.6417605472698 455.12029657064636Q1273.040779072303 459.83762083746825 1279.5305084104739 459.83762083746825L1279.5305084104739 459.83762083746825ZM1380.4485263960682 474.9439655994297Q1365.9148048110042 474.9439655994297 1355.60758762685 468.181558557974Q1345.300370442696 461.39188374618993 1340.092226309962 449.80308135659857Q1334.8840821772278 438.2415467373356 1334.8840821772278 424.08957393687L1334.8840821772278 424.08957393687Q1334.8840821772278 410.53749208363024 1339.7104775253638 399.24863516765186Q1344.509605103171 387.9597782516734 1353.644308163202 381.3882456025169Q1362.7790112232324 374.8167129533604 1375.3494533446483 374.8167129533604L1375.3494533446483 374.8167129533604Q1391.4374378384337 374.8167129533604 1401.5537806302887 385.6147500034267Q1411.6701234221437 396.41278705349305 1411.6701234221437 415.44569074275125L1411.6701234221437 415.44569074275125Q1411.6701234221437 418.79962649315064 1410.8793580826186 424.6894648840959L1410.8793580826186 424.6894648840959L1352.3627229577646 424.6894648840959Q1352.9626139049906 441.75908910970577 1360.8975350705696 450.5938466961236Q1368.8597240064769 459.4286042825415 1381.6210405201919 459.4286042825415L1381.6210405201919 459.4286042825415Q1387.7017533034364 459.4286042825415 1394.49142811522 457.95614468480517Q1401.253835156676 456.48368508706886 1406.3529082080959 453.7296402838954L1406.3529082080959 453.7296402838954L1407.934438887146 469.05412720848443Q1397.13640183708 474.9439655994297 1380.4485263960682 474.9439655994297L1380.4485263960682 474.9439655994297ZM1353.1534882972896 412.71891370990625L1394.1914826416073 412.71891370990625Q1394.1914826416073 402.90251639166416 1389.3650872934713 396.71273252710597Q1384.5659597156641 390.5229486625478 1375.5403277369473 390.5229486625478L1375.5403277369473 390.5229486625478Q1366.7055701505292 390.5229486625478 1360.8975350705696 396.0310382688947Q1355.1167677609378 401.5118601049132 1353.1534882972896 412.71891370990625L1353.1534882972896 412.71891370990625ZM1451.5083358720094 474.9439655994297Q1434.629586038699 474.9439655994297 1422.2500183095822 467.090847744836L1422.2500183095822 467.090847744836L1424.4314399358586 449.80308135659857Q1436.9746142869458 459.61947867484065 1450.3358217478863 459.61947867484065L1450.3358217478863 459.61947867484065Q1457.3981742629549 459.61947867484065 1461.4338042715654 456.674559479368Q1465.4421665098475 453.7296402838954 1465.4421665098475 448.05794405557776L1465.4421665098475 448.05794405557776Q1465.4421665098475 443.7223685733542 1463.587958127513 440.9683237701807Q1461.7337497451786 438.2415467373356 1457.3981742629549 435.6783763264613Q1453.0898665510595 433.115205915587 1444.0642345723427 428.997772595991L1444.0642345723427 428.997772595991Q1433.4570719145754 424.08957393687 1428.5488732554545 417.81798676132644Q1423.6406745963332 411.51913181545444 1423.6406745963332 401.5118601049132L1423.6406745963332 401.5118601049132Q1423.6406745963332 389.7321833230227 1431.8755412355254 382.2880820233558Q1440.1376756450459 374.8167129533604 1454.071506282884 374.8167129533604L1454.071506282884 374.8167129533604Q1468.1962113130212 374.8167129533604 1478.803373970788 381.088300128904L1478.803373970788 381.088300128904L1476.6492201148408 397.0126780007189Q1471.332004900793 393.4678678580204 1466.6419484042995 391.8045338679849Q1461.9246241374776 390.1411998779495 1455.4348947993062 390.1411998779495L1455.4348947993062 390.1411998779495Q1448.5634166765371 390.1411998779495 1444.6368577492403 393.0861190734221Q1440.7102988219435 396.0310382688947 1440.7102988219435 401.32098571261406L1440.7102988219435 401.32098571261406Q1440.7102988219435 406.6109331563334 1444.146037883328 409.36497795950686Q1447.5817769447126 412.11902276268034 1457.589048655254 416.6454726372031L1457.589048655254 416.6454726372031Q1471.5501470634204 422.91705981274663 1477.221843291738 429.297718069604Q1482.9208072903843 435.6783763264613 1482.9208072903843 446.09466459192936L1482.9208072903843 446.09466459192936Q1482.9208072903843 459.61947867484065 1474.495066258893 467.28172213713515Q1466.0420574570735 474.9439655994297 1451.5083358720094 474.9439655994297L1451.5083358720094 474.9439655994297Z " fill="#ba5765" transform="matrix(0.5900517505348785,0,0,0.5900517505348785,0,63.545773726553506)"/></g></svg>